<svg xmlns="http://www.w3.org/2000/svg" viewBox="0 0 560 540" fill="none" class="hero-ecosystem-svg" role="img" aria-labelledby="growthTitle">
  <title id="growthTitle">Hurfi builds your online brand so manufacturers connect directly with global buyers</title>
  <defs>
    <radialGradient id="heroGlow" cx="50%" cy="42%" r="48%">
      <stop offset="0%" stop-color="#0076F7" stop-opacity="0.22"/>
      <stop offset="100%" stop-color="#0076F7" stop-opacity="0"/>
    </radialGradient>
    <filter id="heroSoft" x="-20%" y="-20%" width="140%" height="140%">
      <feDropShadow dx="0" dy="6" stdDeviation="8" flood-color="#0076F7" flood-opacity="0.18"/>
    </filter>
  </defs>
  <circle class="hero-glow" cx="280" cy="236" r="200" fill="url(#heroGlow)"/>
  <circle class="hero-orbit hero-orbit-a" cx="280" cy="236" r="118" stroke="#0076F7" stroke-width="1.4" stroke-dasharray="5 9" opacity="0.45"/>
  <circle class="hero-orbit hero-orbit-b" cx="280" cy="236" r="168" stroke="#0076F7" stroke-width="1" opacity="0.18"/>
  <g class="hero-links" stroke="#0076F7" stroke-opacity="0.32" stroke-width="1.6" stroke-dasharray="4 6">
    <line x1="280" y1="236" x2="280" y2="70"/>
    <line x1="280" y1="236" x2="428" y2="102"/>
    <line x1="280" y1="236" x2="476" y2="210"/>
    <line x1="280" y1="236" x2="448" y2="328"/>
    <line x1="280" y1="236" x2="280" y2="404"/>
    <line x1="280" y1="236" x2="112" y2="328"/>
    <line x1="280" y1="236" x2="84" y2="210"/>
    <line x1="280" y1="236" x2="132" y2="102"/>
  </g>
  <g class="hero-globe" filter="url(#heroSoft)">
    <circle cx="280" cy="236" r="66" fill="#041428"/>
    <circle cx="280" cy="236" r="66" stroke="#0076F7" stroke-width="2.5"/>
    <ellipse cx="280" cy="236" rx="29" ry="66" stroke="#6eb0ff" stroke-width="1.2" opacity="0.75"/>
    <path d="M214 236h132M228 196h104M228 276h104" stroke="#6eb0ff" stroke-width="1.2" opacity="0.7"/>
    <path d="M246 184c18 22 50 22 68 0M246 288c18-22 50-22 68 0" stroke="#9ec5ff" stroke-width="1.1" opacity="0.55"/>
    <text x="280" y="232" text-anchor="middle" fill="#fff" font-family="Sora, system-ui, sans-serif" font-size="11" font-weight="700">Your Brand</text>
    <text x="280" y="248" text-anchor="middle" fill="#9ec5ff" font-family="Sora, system-ui, sans-serif" font-size="9" font-weight="600">Online</text>
  </g>
  <g class="hero-nodes" font-family="Sora, system-ui, sans-serif" font-size="11.5" font-weight="600" fill="#0a2a55">
    <g transform="translate(280 70)"><g class="hero-node" style="--i:0"><rect x="-48" y="-17" width="96" height="34" rx="17" fill="#fff" stroke="#0076F7" stroke-width="1.6"/><text x="0" y="5" text-anchor="middle">Website</text></g></g>
    <g transform="translate(428 102)"><g class="hero-node" style="--i:1"><rect x="-34" y="-17" width="68" height="34" rx="17" fill="#fff" stroke="#0076F7" stroke-width="1.6"/><text x="0" y="5" text-anchor="middle">SEO</text></g></g>
    <g transform="translate(476 210)"><g class="hero-node" style="--i:2"><rect x="-44" y="-17" width="88" height="34" rx="17" fill="#fff" stroke="#0076F7" stroke-width="1.6"/><text x="0" y="5" text-anchor="middle">LinkedIn</text></g></g>
    <g transform="translate(448 328)"><g class="hero-node" style="--i:3"><rect x="-42" y="-17" width="84" height="34" rx="17" fill="#fff" stroke="#0076F7" stroke-width="1.6"/><text x="0" y="5" text-anchor="middle">Google</text></g></g>
    <g transform="translate(280 404)"><g class="hero-node" style="--i:4"><rect x="-44" y="-17" width="88" height="34" rx="17" fill="#fff" stroke="#0076F7" stroke-width="1.6"/><text x="0" y="5" text-anchor="middle">Alibaba</text></g></g>
    <g transform="translate(112 328)"><g class="hero-node" style="--i:5"><rect x="-60" y="-17" width="120" height="34" rx="17" fill="#fff" stroke="#0076F7" stroke-width="1.6"/><text x="0" y="5" text-anchor="middle">Made in China</text></g></g>
    <g transform="translate(84 210)"><g class="hero-node" style="--i:6"><rect x="-60" y="-17" width="120" height="34" rx="17" fill="#fff" stroke="#0076F7" stroke-width="1.6"/><text x="0" y="5" text-anchor="middle">Email Marketing</text></g></g>
    <g transform="translate(132 102)"><g class="hero-node" style="--i:7"><rect x="-48" y="-17" width="96" height="34" rx="17" fill="#fff" stroke="#0076F7" stroke-width="1.6"/><text x="0" y="5" text-anchor="middle">Analytics</text></g></g>
  </g>
  <g class="hero-flow" font-family="Sora, system-ui, sans-serif">
    <rect class="hero-flow-box" x="28" y="458" width="118" height="40" rx="10" fill="#0a2a55"/>
    <text x="87" y="483" text-anchor="middle" fill="#fff" font-size="12" font-weight="600">Manufacturer</text>
    <path class="hero-flow-arrow" d="M156 478h28" stroke="#0076F7" stroke-width="3" stroke-linecap="round"/>
    <polygon points="184,472 196,478 184,484" fill="#0076F7"/>
    <rect class="hero-flow-box hero-flow-core" x="200" y="452" width="160" height="52" rx="10" fill="#0076F7"/>
    <text x="280" y="474" text-anchor="middle" fill="#fff" font-size="12.5" font-weight="700">Your Brand Online</text>
    <text x="280" y="492" text-anchor="middle" fill="#dbeafe" font-size="9.5" font-weight="600">Built by Hurfi · You own buyers</text>
    <path class="hero-flow-arrow" d="M370 478h28" stroke="#0076F7" stroke-width="3" stroke-linecap="round"/>
    <polygon points="398,472 410,478 398,484" fill="#0076F7"/>
    <rect class="hero-flow-box" x="414" y="458" width="118" height="40" rx="10" fill="#041428"/>
    <text x="473" y="483" text-anchor="middle" fill="#fff" font-size="12" font-weight="600">Global Buyers</text>
    <text x="280" y="528" text-anchor="middle" fill="#5b6b7c" font-size="11" font-weight="600">Direct connection — no middleman</text>
  </g>
</svg>
